<?xml version="1.0" standalone="no"?>
<!DOCTYPE svg PUBLIC "-//W3C//DTD SVG 20010904//EN"
 "http://www.w3.org/TR/2001/REC-SVG-20010904/DTD/svg10.dtd">
<svg version="1.0" xmlns="http://www.w3.org/2000/svg"
 width="1919.000000pt" height="888.000000pt" viewBox="0 0 1919.000000 888.000000"
 preserveAspectRatio="xMidYMid meet">

<g transform="translate(0.000000,888.000000) scale(0.100000,-0.100000)"
fill="#000000" stroke="none">
<path d="M1077 8773 c-13 -12 -7 -51 8 -57 14 -5 45 17 45 33 0 21 -39 39 -53
24z"/>
<path d="M2120 8765 c0 -8 7 -15 15 -15 8 0 15 7 15 15 0 8 -7 15 -15 15 -8 0
-15 -7 -15 -15z"/>
<path d="M2180 8765 c0 -8 7 -15 15 -15 8 0 15 7 15 15 0 8 -7 15 -15 15 -8 0
-15 -7 -15 -15z"/>
<path d="M2240 8765 c0 -8 7 -15 15 -15 8 0 15 7 15 15 0 8 -7 15 -15 15 -8 0
-15 -7 -15 -15z"/>
<path d="M338 8758 c-9 -7 -19 -24 -22 -38 l-7 -25 15 26 c30 52 86 44 86 -12
0 -42 -40 -61 -71 -33 -15 13 -20 14 -17 5 8 -26 35 -36 65 -25 23 8 29 16 31
45 5 57 -40 88 -80 57z"/>
<path d="M452 8708 c1 -50 2 -54 5 -20 2 23 7 42 11 42 4 0 15 -14 25 -32 l18
-32 22 35 22 34 6 -45 c6 -43 6 -42 7 19 2 69 0 70 -33 14 l-23 -36 -26 41
c-14 23 -28 42 -31 42 -3 0 -4 -28 -3 -62z"/>
<path d="M610 8762 c0 -5 14 -7 30 -4 17 2 30 6 30 8 0 2 -13 4 -30 4 -16 0
-30 -4 -30 -8z"/>
<path d="M1214 8718 c-25 -70 -27 -76 -14 -55 6 10 23 17 40 17 17 0 33 -7 39
-17 17 -29 13 -9 -10 51 -12 31 -25 56 -28 56 -4 0 -16 -23 -27 -52z m40 6
c10 -26 7 -34 -14 -34 -11 0 -20 4 -20 9 0 17 12 41 20 41 4 0 11 -7 14 -16z"/>
<path d="M1320 8763 c0 -5 12 -9 26 -9 14 -1 28 -5 32 -9 10 -10 -30 -36 -45
-31 -7 3 -13 1 -13 -4 0 -6 14 -10 31 -10 24 0 30 -4 27 -17 -2 -12 -13 -18
-31 -18 -15 1 -27 -3 -27 -7 0 -10 41 -10 57 0 13 8 14 82 0 100 -10 13 -57
17 -57 5z"/>
<path d="M1436 8754 c-23 -22 -21 -81 3 -94 47 -25 84 -2 84 52 0 50 -53 76
-87 42z m53 -4 c36 -19 36 -61 0 -81 -46 -24 -86 54 -41 80 21 13 20 13 41 1z"/>
<path d="M1551 8740 c-1 -54 9 -80 35 -86 39 -10 54 11 52 70 l-2 51 -3 -52
c-3 -42 -8 -53 -25 -58 -28 -10 -41 7 -49 63 -5 41 -6 42 -8 12z"/>
<path d="M1683 8763 c13 -4 17 -16 19 -61 l1 -57 6 54 c5 42 11 56 26 62 14 5
6 7 -25 7 -25 0 -37 -2 -27 -5z"/>
<path d="M2352 8750 c-5 -14 -17 -43 -26 -65 -11 -28 -12 -35 -2 -22 7 10 27
17 45 17 23 0 31 -5 32 -17 0 -10 3 -13 5 -7 3 6 -6 36 -19 65 -24 52 -25 53
-35 29z m28 -41 c0 -10 -6 -19 -13 -19 -22 0 -27 11 -16 32 12 22 29 15 29
-13z"/>
<path d="M2433 8763 c13 -4 17 -16 19 -61 l1 -57 6 54 c5 42 11 56 26 62 14 5
6 7 -25 7 -25 0 -37 -2 -27 -5z"/>
<path d="M2528 8763 c19 -4 22 -11 24 -61 l1 -57 6 54 c5 42 11 56 26 62 13 5
4 7 -30 7 -27 0 -40 -3 -27 -5z"/>
<path d="M2621 8714 c-23 -60 -27 -80 -10 -51 6 10 22 17 39 17 17 0 34 -7 40
-17 13 -21 11 -15 -14 55 -11 29 -23 52 -27 52 -3 0 -16 -25 -28 -56z m43 10
c10 -26 7 -34 -14 -34 -11 0 -20 4 -20 9 0 17 12 41 20 41 4 0 11 -7 14 -16z"/>
<path d="M2739 8760 c-25 -15 -32 -58 -14 -86 15 -24 58 -33 69 -15 4 5 -3 7
-14 4 -23 -6 -60 21 -60 44 0 24 39 55 62 47 14 -4 18 -2 14 5 -9 13 -35 14
-57 1z"/>
<path d="M2833 8710 c0 -36 2 -53 4 -37 4 23 9 27 38 27 29 0 34 -4 38 -27 2
-16 4 1 4 37 0 36 -2 53 -4 38 -4 -24 -9 -28 -38 -28 -29 0 -34 4 -38 28 -2
15 -4 -2 -4 -38z"/>
<path d="M2962 8710 c1 -60 1 -62 7 -20 l6 45 18 -32 c21 -39 23 -40 38 -10
11 19 10 20 -3 9 -13 -11 -19 -6 -41 30 l-26 43 1 -65z"/>
<path d="M3052 8745 c-9 -20 -9 -23 3 -18 8 3 15 14 15 24 0 25 -5 24 -18 -6z"/>
<path d="M3110 8710 l0 -60 38 1 c36 1 36 2 7 8 -39 8 -48 41 -11 41 14 0 26
5 26 10 0 6 -12 10 -26 10 -37 0 -28 33 11 41 29 6 29 7 -7 8 l-38 1 0 -60z"/>
<path d="M3212 8709 c1 -53 2 -56 5 -19 l4 45 39 -45 39 -45 -1 65 c-1 48 -3
54 -5 23 -2 -24 -8 -43 -13 -43 -4 0 -22 19 -39 42 l-31 42 2 -65z"/>
<path d="M3335 8761 c15 -6 21 -20 26 -62 l6 -54 1 57 c2 50 5 57 25 61 12 2
0 5 -28 5 -34 0 -43 -2 -30 -7z"/>
<path d="M3437 8763 c-13 -13 -7 -25 7 -14 7 6 22 8 31 4 13 -4 16 -3 11 5 -8
13 -39 16 -49 5z"/>
<path d="M3860 8756 c0 -7 18 -26 40 -41 l39 -27 33 23 c68 47 60 59 -38 59
-56 0 -74 -3 -74 -14z"/>
<path d="M4080 8750 c-25 -25 -26 -62 -2 -83 20 -18 57 -23 66 -8 3 4 -5 6
-18 4 -26 -5 -56 19 -56 45 0 30 17 45 49 45 16 0 28 4 25 9 -9 15 -44 8 -64
-12z"/>
<path d="M4196 8754 c-23 -22 -21 -81 3 -94 47 -25 84 -2 84 52 0 50 -53 76
-87 42z m53 -4 c36 -19 36 -61 0 -81 -46 -24 -86 54 -41 80 21 13 20 13 41 1z"/>
<path d="M4445 8761 c15 -6 21 -20 26 -62 l6 -54 1 57 c2 45 6 57 20 61 9 3
-3 5 -28 5 -31 0 -39 -2 -25 -7z"/>
<path d="M4552 8750 c-5 -14 -17 -43 -26 -65 -11 -28 -12 -35 -2 -22 7 10 27
17 45 17 23 0 31 -5 32 -17 0 -10 3 -13 5 -7 3 6 -6 36 -19 65 -24 52 -25 53
-35 29z m28 -41 c0 -10 -6 -19 -13 -19 -22 0 -27 11 -16 32 12 22 29 15 29
-13z"/>
<path d="M4652 8754 c-26 -18 -30 -65 -6 -88 18 -18 60 -21 69 -6 4 7 -2 9
-19 4 -34 -8 -56 10 -56 47 0 22 6 32 25 39 14 5 32 7 42 3 11 -4 14 -3 9 5
-10 17 -37 15 -64 -4z"/>
<path d="M4755 8761 c15 -6 21 -20 26 -62 l6 -54 1 57 c2 45 6 57 20 61 9 3
-3 5 -28 5 -31 0 -39 -2 -25 -7z"/>
<path d="M4320 8747 c0 -10 4 -17 9 -17 5 0 23 -19 40 -42 17 -23 31 -35 31
-27 0 9 -18 35 -40 59 -27 29 -40 38 -40 27z"/>
<path d="M2120 8715 c0 -8 7 -15 15 -15 8 0 15 7 15 15 0 8 -7 15 -15 15 -8 0
-15 -7 -15 -15z"/>
<path d="M2180 8715 c0 -8 7 -15 15 -15 8 0 15 7 15 15 0 8 -7 15 -15 15 -8 0
-15 -7 -15 -15z"/>
<path d="M2240 8715 c0 -8 7 -15 15 -15 8 0 15 7 15 15 0 8 -7 15 -15 15 -8 0
-15 -7 -15 -15z"/>
<path d="M3430 8721 c0 -5 12 -12 26 -15 36 -9 28 -42 -9 -39 -15 1 -25 -2
-22 -8 4 -5 17 -9 31 -9 28 0 42 25 28 48 -11 17 -54 36 -54 23z"/>
<path d="M200 8710 c0 -5 18 -10 40 -10 22 0 40 5 40 10 0 6 -18 10 -40 10
-22 0 -40 -4 -40 -10z"/>
<path d="M610 8710 c0 -5 11 -10 25 -10 14 0 25 5 25 10 0 6 -11 10 -25 10
-14 0 -25 -4 -25 -10z"/>
<path d="M3985 8694 c-36 -29 -52 -30 -85 -4 -35 27 -40 25 -40 -15 l0 -35 75
0 c81 0 89 5 83 53 l-3 25 -30 -24z"/>
<path d="M1044 8683 c-9 -34 6 -45 57 -41 41 3 44 5 44 32 0 28 -2 30 -48 31
-43 2 -48 0 -53 -22z"/>
<path d="M2120 8665 c0 -8 7 -15 15 -15 8 0 15 7 15 15 0 8 -7 15 -15 15 -8 0
-15 -7 -15 -15z"/>
<path d="M2180 8665 c0 -8 7 -15 15 -15 8 0 15 7 15 15 0 8 -7 15 -15 15 -8 0
-15 -7 -15 -15z"/>
<path d="M2240 8665 c0 -8 7 -15 15 -15 8 0 15 7 15 15 0 8 -7 15 -15 15 -8 0
-15 -7 -15 -15z"/>
<path d="M610 8658 c0 -4 14 -8 30 -8 17 0 30 2 30 4 0 2 -13 6 -30 8 -16 3
-30 1 -30 -4z"/>
<path d="M7060 5045 l0 -295 2460 0 2460 0 0 295 0 295 -2460 0 -2460 0 0
-295z m310 26 c0 -89 22 -117 71 -91 16 9 19 22 19 85 0 68 2 75 20 75 18 0
20 -7 20 -69 0 -88 -22 -121 -80 -121 -65 0 -84 25 -88 114 -4 72 -3 76 17 76
19 0 21 -5 21 -69z m394 53 c39 -38 7 -104 -51 -104 -31 0 -33 -2 -33 -35 0
-28 -4 -35 -20 -35 -19 0 -20 7 -20 95 l0 95 54 0 c36 0 60 -5 70 -16z m186
-63 l0 -80 37 -3 c20 -2 38 -9 41 -15 3 -10 -13 -13 -57 -13 l-61 0 0 95 c0
88 1 95 20 95 18 0 20 -7 20 -79z m357 55 c23 -20 28 -32 28 -71 0 -62 -35
-95 -99 -95 -60 0 -96 36 -96 95 0 32 6 48 26 69 36 35 101 36 141 2z m289
-65 c19 -47 34 -88 34 -93 0 -19 -31 -6 -42 17 -9 20 -18 25 -48 25 -30 0 -39
-5 -48 -25 -11 -24 -42 -35 -42 -16 0 5 16 48 36 96 48 113 63 113 110 -4z
m303 72 c44 -37 43 -126 -1 -158 -14 -9 -44 -15 -80 -15 l-58 0 0 95 0 95 59
0 c41 0 65 -5 80 -17z m371 -51 c14 -34 27 -62 30 -62 3 0 16 27 30 61 22 57
42 80 57 65 3 -3 -11 -46 -32 -96 -49 -118 -61 -118 -109 -2 -41 99 -42 105
-19 100 11 -2 28 -27 43 -66z m290 -27 c0 -88 -1 -95 -20 -95 -19 0 -20 7 -20
95 0 88 1 95 20 95 19 0 20 -7 20 -95z m295 71 c32 -32 40 -69 25 -107 -19
-44 -47 -59 -112 -59 l-58 0 0 95 0 95 60 0 c51 0 65 -4 85 -24z m295 14 c0
-5 -20 -10 -45 -10 -43 0 -45 -1 -45 -30 0 -28 3 -30 35 -30 19 0 35 -4 35
-10 0 -5 -16 -10 -35 -10 -33 0 -35 -2 -35 -35 0 -35 0 -35 45 -35 25 0 45 -4
45 -10 0 -6 -28 -10 -65 -10 l-65 0 0 95 0 95 65 0 c37 0 65 -4 65 -10z m294
-16 c37 -38 37 -105 0 -139 -37 -34 -102 -34 -141 -1 -23 20 -28 32 -28 71 0
39 5 51 28 71 40 34 105 33 141 -2z m456 16 c0 -5 -20 -10 -45 -10 -45 0 -45
0 -45 -35 0 -34 1 -35 40 -35 22 0 40 -4 40 -10 0 -5 -18 -10 -40 -10 l-40 0
0 -40 c0 -33 -3 -40 -20 -40 -19 0 -20 7 -20 95 l0 95 65 0 c37 0 65 -4 65
-10z m170 -85 c0 -88 -1 -95 -20 -95 -19 0 -20 7 -20 95 0 88 1 95 20 95 19 0
20 -7 20 -95z m190 16 l0 -80 37 -3 c20 -2 38 -9 41 -15 3 -10 -13 -13 -57
-13 l-61 0 0 95 c0 88 1 95 20 95 18 0 20 -7 20 -79z m340 69 c0 -5 -22 -10
-50 -10 -49 0 -50 -1 -50 -30 0 -28 2 -30 40 -30 22 0 40 -4 40 -10 0 -5 -18
-10 -40 -10 -39 0 -40 -1 -40 -35 l0 -35 50 0 c28 0 50 -4 50 -10 0 -6 -28
-10 -65 -10 l-65 0 0 95 0 95 65 0 c37 0 65 -4 65 -10z"/>
<path d="M7680 5080 c0 -33 3 -40 19 -40 18 0 51 24 51 36 0 20 -25 44 -45 44
-22 0 -25 -4 -25 -40z"/>
<path d="M8202 5104 c-17 -12 -22 -25 -22 -59 0 -34 5 -47 22 -59 30 -21 54
-20 78 4 40 40 14 130 -38 130 -10 0 -28 -7 -40 -16z"/>
<path d="M8521 5050 c-10 -29 -9 -30 19 -30 28 0 29 1 19 30 -6 17 -15 30 -19
30 -4 0 -13 -13 -19 -30z"/>
<path d="M8790 5045 l0 -75 30 0 c38 0 80 39 80 75 0 36 -42 75 -80 75 l-30 0
0 -75z"/>
<path d="M9750 5045 l0 -75 29 0 c34 0 58 20 67 55 12 49 -20 95 -67 95 l-29
0 0 -75z"/>
<path d="M10330 5100 c-41 -41 -14 -130 39 -130 36 0 65 34 64 76 -2 64 -61
96 -103 54z"/>
<path d="M7170 4380 c-50 -50 11 -138 70 -100 11 7 6 8 -16 4 -36 -7 -64 15
-64 51 0 36 28 58 64 51 22 -4 27 -3 16 4 -23 15 -48 12 -70 -10z"/>
<path d="M7273 4335 c0 -54 1 -61 6 -30 5 33 10 40 28 39 12 0 19 4 16 9 -3 5
-13 7 -24 4 -13 -4 -19 2 -22 22 -2 14 -4 -5 -4 -44z"/>
<path d="M7742 4333 c0 -38 3 -54 5 -36 3 26 9 33 31 36 l27 4 -27 2 c-23 1
-28 6 -28 25 0 20 6 25 33 29 31 4 31 4 -5 5 l-38 2 2 -67z"/>
<path d="M7873 4335 c0 -38 2 -53 4 -32 2 20 2 52 0 70 -2 17 -4 1 -4 -38z"/>
<path d="M7373 4353 c-7 -2 -13 -9 -13 -15 0 -6 6 -6 15 2 21 18 45 5 45 -25
0 -30 -24 -43 -45 -25 -9 8 -15 8 -15 2 0 -17 39 -25 55 -12 18 15 19 52 3 68
-13 13 -24 14 -45 5z"/>
<path d="M7462 4348 c-30 -30 2 -93 36 -72 9 6 18 17 20 25 2 8 -2 5 -10 -5
-20 -26 -48 -14 -48 19 0 33 28 45 46 20 8 -10 14 -14 14 -9 0 13 -21 34 -35
34 -6 0 -16 -5 -23 -12z"/>
<path d="M7544 4345 c-7 -18 3 -35 22 -35 8 0 14 -7 14 -16 0 -12 -6 -15 -21
-11 -16 4 -19 3 -11 -5 14 -14 42 -3 42 18 0 9 -9 18 -20 21 -11 3 -20 12 -20
20 0 10 7 14 20 10 11 -3 18 -1 14 4 -8 14 -34 11 -40 -6z"/>
<path d="M7622 4348 c-27 -27 -7 -78 29 -78 10 0 20 4 23 8 2 4 -7 8 -22 7
-17 0 -28 6 -30 18 -3 13 3 17 27 17 17 0 31 4 31 8 0 12 -22 32 -35 32 -6 0
-16 -5 -23 -12z m43 -8 c4 -6 -5 -10 -20 -10 -15 0 -24 4 -20 10 3 6 12 10 20
10 8 0 17 -4 20 -10z"/>
<path d="M7833 4315 c0 -27 2 -38 4 -22 2 15 2 37 0 50 -2 12 -4 0 -4 -28z"/>
<path d="M7920 4346 c-25 -31 13 -97 40 -70 8 8 4 10 -12 10 -14 -1 -24 6 -26
17 -3 13 3 17 27 17 33 0 39 8 19 28 -16 16 -33 15 -48 -2z m45 -6 c4 -6 -5
-10 -20 -10 -15 0 -24 4 -20 10 3 6 12 10 20 10 8 0 17 -4 20 -10z"/>
<path d="M10760 3725 l0 -235 610 0 610 0 0 235 0 235 -610 0 -610 0 0 -235z
m346 48 c-12 -99 -15 -106 -46 -99 -18 3 -33 0 -40 -9 -7 -8 -16 -12 -21 -9
-16 9 -10 37 14 62 l22 25 -27 -18 c-30 -18 -91 -14 -71 6 14 14 156 98 167
98 5 1 6 -24 2 -56z m64 -11 c0 -50 13 -74 36 -65 10 3 14 22 14 59 0 41 4 54
15 54 19 0 21 -100 3 -118 -17 -17 -58 -15 -80 5 -24 21 -26 113 -3 113 11 0
15 -12 15 -48z m178 36 c9 -9 12 -9 12 0 0 7 7 12 15 12 12 0 15 -13 15 -59 0
-57 1 -60 28 -64 19 -3 14 -4 -15 -6 l-43 -1 0 37 c0 29 -3 34 -12 25 -7 -7
-22 -12 -35 -12 -18 0 -23 -6 -23 -25 0 -14 -4 -25 -10 -25 -6 0 -10 28 -10
65 l0 65 33 0 c18 0 38 -5 45 -12z m202 -8 c58 -58 -31 -149 -92 -93 -22 20
-23 70 -1 95 21 24 68 23 93 -2z m107 -37 l22 -58 0 58 1 57 42 0 c51 0 78
-22 78 -63 0 -49 -24 -67 -90 -67 -49 0 -58 3 -63 20 -3 12 -14 20 -25 20 -12
0 -23 -9 -27 -20 -3 -11 -13 -20 -21 -20 -8 0 -14 1 -14 3 0 4 42 112 46 119
13 21 32 3 51 -49z"/>
<path d="M11290 3770 c0 -25 4 -31 18 -28 11 2 17 12 17 28 0 16 -6 26 -17 28
-14 3 -18 -3 -18 -28z"/>
<path d="M11482 3788 c-24 -24 -9 -98 19 -98 16 0 39 33 39 55 0 22 -23 55
-39 55 -4 0 -12 -5 -19 -12z"/>
<path d="M11710 3745 c0 -46 3 -55 18 -55 27 0 42 20 42 55 0 35 -15 55 -42
55 -15 0 -18 -9 -18 -55z"/>
<path d="M11615 3757 c-8 -19 -2 -31 13 -26 5 2 6 13 2 24 -7 19 -8 19 -15 2z"/>
</g>
</svg>
